<svg width="49" height="52" viewBox="0 0 49 52" fill="none" xmlns="http://www.w3.org/2000/svg">
<path d="M14.6251 0.135376C16.2361 0.135376 17.6201 0.338778 18.7751 0.745678C19.9471 1.13628 20.9241 1.60018 21.7051 2.13728C22.4861 2.65808 23.0891 3.18708 23.5121 3.72418C23.9351 4.26128 24.2031 4.67638 24.3171 4.96928C24.3821 5.11578 24.415 5.24598 24.415 5.35998C24.431 5.45758 24.4391 5.54708 24.4391 5.62848C24.4391 5.82378 24.3911 5.96218 24.2931 6.04358C24.2121 6.12488 24.1061 6.27138 23.9761 6.48298C23.8781 6.64578 23.764 6.75968 23.634 6.82478C23.52 6.88988 23.39 6.94688 23.243 6.99568C23.113 7.04448 22.9831 7.10958 22.8531 7.19098C22.7391 7.25608 22.6411 7.37008 22.5601 7.53278C22.2991 8.02108 21.9331 8.26517 21.4611 8.26517C21.1841 8.26517 20.9161 8.18388 20.6551 8.02108C20.3951 7.84208 20.1021 7.62228 19.7761 7.36188C19.4511 7.10148 19.0681 6.81668 18.6291 6.50738C18.2061 6.19818 17.6771 5.91338 17.0421 5.65288C16.4241 5.39248 15.6831 5.18088 14.8201 5.01818C13.9581 4.83908 12.9321 4.74958 11.7441 4.74958C10.4421 4.74958 9.29506 4.95308 8.30206 5.35998C7.32506 5.75058 6.41408 6.33647 5.56708 7.11777C4.83508 7.80137 4.28204 8.52568 3.90704 9.29058C3.54904 10.0556 3.37006 10.7962 3.37006 11.5123C3.37006 12.3424 3.63909 13.0992 4.17609 13.7828C4.56609 14.2711 5.14406 14.7512 5.90906 15.2233C6.69006 15.6953 7.52105 16.1428 8.39905 16.566C9.29505 16.9892 10.1651 17.3798 11.0121 17.7379C11.8741 18.0797 12.5741 18.3727 13.1111 18.6168C13.5831 18.8284 13.8931 19.04 14.0391 19.2516C14.2021 19.4632 14.2831 19.6829 14.2831 19.9108C14.2831 20.1549 14.2341 20.4153 14.1371 20.692C14.0551 20.9524 14.0151 21.221 14.0151 21.4977C14.0151 21.6279 14.031 21.7499 14.063 21.8639C14.096 21.9778 14.1121 22.0917 14.1121 22.2057C14.1121 22.4661 14.031 22.694 13.868 22.8893C13.722 23.0683 13.5181 23.2311 13.2581 23.3775C13.0141 23.524 12.7291 23.6542 12.4031 23.7682C12.0781 23.8821 11.7521 23.9879 11.4271 24.0856C10.9551 24.232 10.3531 24.4436 9.62006 24.7203C8.88806 24.997 8.18003 25.3714 7.49603 25.8434C6.81203 26.2991 6.22704 26.8688 5.73804 27.5524C5.25004 28.2359 5.00604 29.066 5.00604 30.0426C5.00604 30.6936 5.14408 31.304 5.42108 31.8736C5.69808 32.4433 6.08808 32.9479 6.59308 33.3873C7.11408 33.8105 7.73206 34.1441 8.44806 34.3883C9.16406 34.6324 9.95404 34.7545 10.816 34.7545C12.786 34.7545 14.5681 34.3232 16.1631 33.4606C17.7581 32.5979 19.0681 31.4179 20.0941 29.9205C20.3221 29.595 20.59 29.1311 20.899 28.5289C21.225 27.9104 21.567 27.1617 21.925 26.2828C22.006 26.0875 22.1121 25.941 22.2421 25.8434C22.3721 25.7294 22.5031 25.6725 22.6331 25.6725C22.7301 25.6725 22.8121 25.7132 22.8771 25.7945C22.9581 25.8596 22.9991 25.9573 22.9991 26.0875C22.9991 26.2177 22.9261 26.4944 22.7791 26.9176C22.6331 27.3245 22.4291 27.8128 22.1691 28.3824C21.9091 28.9358 21.591 29.538 21.217 30.1891C20.859 30.8401 20.468 31.4667 20.045 32.069C19.459 32.899 18.7751 33.6803 17.9941 34.4127C17.2291 35.1289 16.3911 35.7555 15.4791 36.2926C14.5841 36.8297 13.6241 37.2447 12.5991 37.5377C11.5731 37.8469 10.499 38.0016 9.37604 38.0016C8.36704 38.0016 7.35004 37.8551 6.32404 37.5621C5.29904 37.2854 4.36309 36.8622 3.51709 36.2926C2.68709 35.7229 2.00306 34.9986 1.46606 34.1197C0.945064 33.2408 0.685059 32.2073 0.685059 31.0191C0.685059 29.831 0.912042 28.8137 1.36804 27.9674C1.82404 27.1048 2.38504 26.3805 3.05304 25.7945C3.73604 25.2086 4.46906 24.7285 5.25006 24.3541C6.04806 23.9798 6.78008 23.6787 7.44708 23.4508C8.13108 23.2066 8.70107 23.0113 9.15607 22.8649C9.61207 22.7184 9.84009 22.5719 9.84009 22.4254C9.84009 22.3115 9.71806 22.1975 9.47406 22.0836C9.24606 21.9534 8.93708 21.815 8.54608 21.6686C8.17208 21.5058 7.74008 21.3268 7.25208 21.1315C6.76408 20.9361 6.26706 20.7001 5.76306 20.4234C4.94906 19.984 4.21606 19.5201 3.56506 19.0318C2.91406 18.5436 2.35304 18.0146 1.88104 17.4449C1.42504 16.859 1.07505 16.2242 0.831055 15.5406C0.587055 14.8408 0.465088 14.0677 0.465088 13.2213C0.465088 12.0983 0.636088 10.9915 0.978088 9.90098C1.33609 8.81048 1.83204 7.78508 2.46704 6.82478C3.10204 5.84828 3.85007 4.95308 4.71307 4.13928C5.59207 3.32548 6.55206 2.62558 7.59406 2.03968C8.65205 1.43738 9.77507 0.973579 10.9631 0.648079C12.1511 0.306279 13.3721 0.135376 14.6251 0.135376ZM29.8351 19.1051C30.1931 19.1051 30.494 19.1783 30.738 19.3248C30.982 19.4713 31.178 19.6585 31.324 19.8863C31.471 20.1142 31.5681 20.3746 31.6171 20.6676C31.6821 20.9606 31.7151 21.2617 31.7151 21.5709C31.7151 22.0429 31.6331 22.5637 31.4711 23.1334C31.3241 23.6868 31.096 24.2158 30.787 24.7203C30.494 25.2249 30.128 25.6481 29.688 25.9899C29.2491 26.3154 28.753 26.4781 28.199 26.4781C27.841 26.4781 27.662 26.3479 27.662 26.0875C27.662 25.9085 27.7191 25.6562 27.8331 25.3307C27.9471 24.9889 28.0041 24.5331 28.0041 23.9635C28.0041 23.817 27.9961 23.6461 27.9791 23.4508C27.9631 23.2555 27.9231 23.0683 27.8571 22.8893C27.7921 22.7102 27.7031 22.5556 27.5891 22.4254C27.475 22.2952 27.3121 22.2301 27.1011 22.2301C26.6941 22.2301 26.3271 22.4173 26.0021 22.7916C25.6761 23.1497 25.392 23.6054 25.147 24.1588C24.92 24.7122 24.741 25.3144 24.61 25.9654C24.496 26.6165 24.4391 27.2268 24.4391 27.7965C24.4391 28.3987 24.496 28.9033 24.61 29.3102C24.724 29.7008 24.879 30.0182 25.074 30.2623C25.27 30.5065 25.489 30.6774 25.733 30.775C25.994 30.8727 26.2621 30.9215 26.5391 30.9215C27.1901 30.9215 27.7521 30.7425 28.2241 30.3844C28.7121 30.0263 29.1271 29.6357 29.4691 29.2125C29.8271 28.7893 30.1121 28.3987 30.3231 28.0406C30.5511 27.6826 30.73 27.5035 30.86 27.5035C31.039 27.5035 31.1371 27.65 31.1531 27.943C31.1701 28.2359 31.178 28.5696 31.178 28.944C31.178 29.2369 31.1611 29.6845 31.1291 30.2867C31.1131 30.8727 31.0801 31.5318 31.0311 32.2643C30.9991 32.9967 30.9581 33.7698 30.9091 34.5836C30.8601 35.3974 30.8121 36.1705 30.7631 36.9029C30.7141 37.6516 30.6651 38.3271 30.6161 38.9293C30.5841 39.5315 30.5591 39.9954 30.5431 40.3209C30.4621 41.7369 30.3801 42.9414 30.2991 43.934C30.2171 44.943 30.1361 45.798 30.0551 46.498C29.9731 47.198 29.892 47.759 29.811 48.182C29.745 48.622 29.6721 48.988 29.5911 49.281C29.5261 49.525 29.404 49.712 29.225 49.842C29.062 49.989 28.883 50.103 28.688 50.184C28.4921 50.266 28.2971 50.331 28.1021 50.38C27.923 50.428 27.7841 50.493 27.6871 50.575C27.2631 50.917 26.9221 51.177 26.6611 51.356C26.4171 51.535 26.2051 51.625 26.0261 51.625C25.8961 51.625 25.774 51.576 25.66 51.478C25.562 51.38 25.514 51.218 25.514 50.99C25.514 50.908 25.5221 50.77 25.5381 50.575C25.5711 50.396 25.603 50.241 25.636 50.111C25.636 50.062 25.644 49.989 25.66 49.891C25.693 49.794 25.7251 49.623 25.7581 49.379C25.7901 49.134 25.8391 48.801 25.9041 48.378C25.9691 47.971 26.0511 47.417 26.1481 46.717C26.2461 46.018 26.3601 45.155 26.4901 44.13C26.6201 43.12 26.775 41.8997 26.954 40.4674C27.003 40.1093 27.0601 39.621 27.1251 39.0025C27.1901 38.3841 27.263 37.7005 27.345 36.9518C27.426 36.2193 27.507 35.4544 27.5891 34.6568C27.67 33.8593 27.7351 33.1025 27.7841 32.3863C27.7841 32.2887 27.7601 32.2399 27.7111 32.2399C27.6621 32.2399 27.5971 32.305 27.5161 32.4352C27.4511 32.5654 27.3531 32.7363 27.2231 32.9479C27.0921 33.1432 26.9301 33.3629 26.7341 33.607C26.5551 33.8512 26.3271 34.0953 26.0511 34.3395C25.7741 34.5836 25.4571 34.7952 25.0991 34.9742C24.7411 35.1695 24.3661 35.2672 23.9761 35.2672C23.6011 35.2672 23.2351 35.1451 22.8771 34.901C22.5351 34.6568 22.2341 34.3313 21.9741 33.9244C21.6971 33.5012 21.4851 33.0048 21.3391 32.4352C21.1761 31.8655 21.095 31.2552 21.095 30.6041C21.095 29.1881 21.3231 27.8616 21.7781 26.6246C22.2181 25.3876 22.942 24.1344 23.951 22.8649C24.4391 22.2626 24.9521 21.7255 25.4891 21.2535C26.0261 20.7815 26.555 20.3909 27.076 20.0816C27.6131 19.7561 28.1181 19.512 28.5901 19.3492C29.0781 19.1865 29.4931 19.1051 29.8351 19.1051ZM39.308 33.192C39.698 33.192 40.0401 33.0618 40.3331 32.8014C40.6261 32.541 40.8701 32.1992 41.0651 31.776C41.2771 31.3528 41.4481 30.8645 41.5781 30.3111C41.7081 29.7415 41.806 29.1555 41.871 28.5533C41.399 28.2278 40.9351 27.8046 40.4791 27.2838C40.0401 26.763 39.6411 26.1282 39.2831 25.3795C39.0721 24.94 38.917 24.4925 38.819 24.0367C38.722 23.5647 38.673 23.1171 38.673 22.694C38.673 22.1568 38.7461 21.6523 38.8931 21.1803C39.0391 20.7083 39.251 20.3014 39.527 19.9596C39.82 19.6178 40.1781 19.3492 40.6021 19.1539C41.0251 18.9423 41.513 18.8365 42.066 18.8365C42.766 18.8365 43.3361 19.0074 43.7751 19.3492C44.2311 19.6747 44.589 20.0979 44.85 20.6188C45.11 21.1233 45.2891 21.6767 45.3871 22.2789C45.5011 22.8811 45.558 23.4427 45.558 23.9635C45.558 24.6471 45.5091 25.3469 45.4111 26.0631C45.3301 26.7792 45.191 27.5035 44.996 28.2359C45.598 28.1871 46.1351 28.0244 46.6071 27.7477C47.0791 27.4547 47.4781 26.9664 47.8041 26.2828C47.9991 25.8759 48.2021 25.6725 48.4141 25.6725C48.5281 25.6725 48.626 25.705 48.707 25.7701C48.805 25.8352 48.8541 25.941 48.8541 26.0875C48.8541 26.2014 48.8291 26.3154 48.7801 26.4293C48.4551 27.357 47.9101 28.0895 47.1451 28.6266C46.3961 29.1637 45.5581 29.4322 44.6301 29.4322C44.3531 30.2298 44.0111 30.9866 43.6041 31.7027C43.2141 32.4026 42.7501 33.0211 42.2131 33.5582C41.6761 34.0953 41.0651 34.5185 40.3821 34.8277C39.6981 35.137 38.9411 35.2916 38.1111 35.2916C37.6721 35.2916 37.1751 35.2265 36.6221 35.0963C36.0691 34.9661 35.5481 34.6975 35.0601 34.2906C34.5711 33.8675 34.1641 33.2815 33.8391 32.5328C33.4971 31.7678 33.326 30.7587 33.326 29.5055C33.326 28.4801 33.521 27.3977 33.912 26.2584C34.286 25.1191 34.921 23.9879 35.816 22.8649C36.158 22.4417 36.4671 22.1406 36.7441 21.9615C37.0371 21.7825 37.2731 21.693 37.4521 21.693C37.8101 21.693 37.9891 21.9127 37.9891 22.3522C37.9891 22.5475 37.9241 22.7916 37.7941 23.0846C37.6641 23.3775 37.5251 23.7519 37.3791 24.2076C37.2321 24.6634 37.0941 25.2086 36.9641 25.8434C36.834 26.4619 36.769 27.1943 36.769 28.0406C36.769 29.6682 36.9961 30.9378 37.4521 31.8492C37.9241 32.7444 38.543 33.192 39.308 33.192ZM42.0181 26.0143C42.0181 24.3541 41.8631 23.166 41.5541 22.4498C41.2441 21.7174 40.9031 21.4244 40.5281 21.5709C40.3661 21.636 40.268 21.7825 40.235 22.0104C40.219 22.2382 40.2111 22.458 40.2111 22.6695C40.2111 23.0276 40.2601 23.402 40.3571 23.7926C40.4551 24.1832 40.5771 24.5738 40.7241 24.9645C40.8861 25.3551 41.074 25.7294 41.285 26.0875C41.513 26.4293 41.749 26.7467 41.993 27.0397C42.009 26.8606 42.0181 26.6897 42.0181 26.527C42.0181 26.3642 42.0181 26.1933 42.0181 26.0143Z" fill="url(#paint0_radial_1_1370)"/>
<defs>
<radialGradient id="paint0_radial_1_1370" cx="0" cy="0" r="1" gradientUnits="userSpaceOnUse" gradientTransform="translate(-0.999911 4.50978) rotate(31.9066) scale(78.694 70.4028)">
<stop stop-color="#6E3F93"/>
<stop offset="1" stop-color="#C2B3DC" stop-opacity="0.6"/>
</radialGradient>
</defs>
</svg>
